<?xml version="1.0" encoding="utf-8"?>
<!-- Generator: Adobe Illustrator 26.3.1, SVG Export Plug-In . SVG Version: 6.00 Build 0)  -->
<svg version="1.1" id="レイヤー_1" xmlns="http://www.w3.org/2000/svg" xmlns:xlink="http://www.w3.org/1999/xlink" x="0px"
	 y="0px" viewBox="0 0 1183.3 1080" style="enable-background:new 0 0 1183.3 1080;" xml:space="preserve">
<style type="text/css">
	.st0{fill:#FFFFFF;}
	.st1{fill:#F6F6F6;}
	.st2{clip-path:url(#SVGID_00000005979025149624347480000000454160610615205813_);}
	.st3{clip-path:url(#SVGID_00000018931104537652062230000009142236590967625372_);}
	.st4{clip-path:url(#SVGID_00000100356909637811986960000011747071516949527197_);}
	.st5{clip-path:url(#SVGID_00000000204936836327878200000012160793190985060786_);}
	.st6{fill:#1CC497;}
	.st7{fill:#8ED8C1;}
	.st8{fill:#333333;}
	.st9{fill:#EBF8F4;}
</style>
<rect x="-817.5" y="-62.7" class="st0" width="2134.4" height="1200.6"/>
<rect x="-928.7" y="-108" class="st0" width="2304" height="1296"/>
<rect x="-928.7" y="-108" class="st1" width="2304" height="1296"/>
<g>
	<defs>
		<rect id="SVGID_1_" x="-736.7" width="1180" height="1080"/>
	</defs>
	<clipPath id="SVGID_00000026865582170395666190000005867317210870059198_">
		<use xlink:href="#SVGID_1_"  style="overflow:visible;"/>
	</clipPath>
	<g style="clip-path:url(#SVGID_00000026865582170395666190000005867317210870059198_);">
		<g>
			<defs>
				
					<rect id="SVGID_00000051369589761057994680000002800002857948204722_" x="-747.6" y="-83.4" transform="matrix(0.9996 -2.907800e-02 2.907800e-02 0.9996 -17.4414 -4.1714)" width="1191" height="1362"/>
			</defs>
			<clipPath id="SVGID_00000114035047567601921240000009650169362011257777_">
				<use xlink:href="#SVGID_00000051369589761057994680000002800002857948204722_"  style="overflow:visible;"/>
			</clipPath>
			<g style="clip-path:url(#SVGID_00000114035047567601921240000009650169362011257777_);">
				<path class="st0" d="M-727.6,1295.6l746.9-21.7l423.8-693L-20.2-87.5l-746.9,21.7L-727.6,1295.6"/>
			</g>
		</g>
	</g>
</g>
<g>
	<defs>
		<rect id="SVGID_00000082346294405219080730000004523352663306689937_" x="-55.4" y="646.7" width="484" height="433.3"/>
	</defs>
	<clipPath id="SVGID_00000178897871407449251990000000684487224510142896_">
		<use xlink:href="#SVGID_00000082346294405219080730000004523352663306689937_"  style="overflow:visible;"/>
	</clipPath>
	<g style="clip-path:url(#SVGID_00000178897871407449251990000000684487224510142896_);">
		<g>
			<defs>
				
					<rect id="SVGID_00000114035712992501771990000002515432942864695189_" x="-97.3" y="850.3" transform="matrix(0.5179 -0.8555 0.8555 0.5179 -731.2023 646.2278)" width="610" height="243"/>
			</defs>
			<clipPath id="SVGID_00000118368600355360873240000005537127176603293609_">
				<use xlink:href="#SVGID_00000114035712992501771990000002515432942864695189_"  style="overflow:visible;"/>
			</clipPath>
			<g style="clip-path:url(#SVGID_00000118368600355360873240000005537127176603293609_);">
				<path class="st6" d="M195.7,1226.3l231.9-383.1L261.7,648l-315.9,521.8L195.7,1226.3"/>
			</g>
		</g>
	</g>
</g>
<path class="st7" d="M761.9,296.5l-573.3-1.5c-12.8,0-22.9,9.1-21.8,19.6l33.6,537.3c1,9.3,10.4,16.4,21.8,16.4l25.2,0l5.2-2.7
	l720.1,2.6c12.8,0,23-10,21.9-20.5L961,312.8c-1-9.3-10.1-17.4-21.4-17.4L761.9,296.5"/>
<path class="st0" d="M786,296.8H214.2c-12.8,0-22.8,9.1-21.7,19.6l33.3,535.2c1,9.3,10.4,16.4,21.7,16.4h748.6
	c12.8,0,22.8-9.1,21.7-19.6l-33.3-535.2c-1-9.3-10.4-16.4-21.7-16.4H786"/>
<path class="st8" d="M247.4,868c-11.8,0-21.6-7.7-22.7-17.9l-12.2-194c-0.1-0.9,0.6-1.7,1.5-1.7c0.9,0,1.7,0.6,1.7,1.5l12.2,194
	c0.9,8.5,9.3,14.9,19.5,14.9c0.9,0,1.6,0.7,1.6,1.6C249,867.3,248.3,868,247.4,868"/>
<path class="st8" d="M204.3,499.6c-0.8,0-1.6-0.7-1.6-1.5l-11.3-181.5c-0.5-4.8,1.1-9.5,4.6-13.4c4.5-5,11.3-7.8,18.7-7.8h748.6
	c12.2,0,22.2,7.6,23.3,17.8l7,124.6c0,0.9-0.6,1.7-1.5,1.7c-0.9,0-1.7-0.6-1.7-1.5l-7-124.5c-0.9-8.3-9.7-14.8-20.1-14.8H214.7
	c-6.4,0-12.5,2.5-16.3,6.8c-2.8,3.2-4.2,7.1-3.8,11l11.3,181.6c0.1,0.9-0.6,1.7-1.5,1.7C204.4,499.6,204.4,499.6,204.3,499.6"/>
<path class="st8" d="M396.6,868.7c-0.9,0-1.6-0.7-1.6-1.6c0-0.9,0.7-1.6,1.6-1.6l178-0.8c0.9,0,1.6,0.7,1.6,1.6
	c0,0.9-0.7,1.6-1.6,1.6L396.6,868.7L396.6,868.7"/>
<path class="st8" d="M804.6,868.7c-0.9,0-1.6-0.7-1.6-1.6c0-0.9,0.7-1.6,1.6-1.6l77.3-0.8c0,0,0,0,0,0c0.9,0,1.6,0.7,1.6,1.6
	c0,0.9-0.7,1.6-1.6,1.6L804.6,868.7C804.6,868.7,804.6,868.7,804.6,868.7"/>
<path class="st8" d="M284.6,869.4c-0.9,0-1.6-0.7-1.6-1.6c0-0.9,0.7-1.6,1.6-1.6l55.1-0.8c0.9,0,1.6,0.7,1.6,1.6
	c0,0.9-0.7,1.6-1.6,1.6L284.6,869.4C284.6,869.4,284.6,869.4,284.6,869.4"/>
<path class="st9" d="M365.1,821.1h-58l-7.3-130.6h58L365.1,821.1"/>
<path class="st9" d="M448.4,821.1h-58L379,617.9h58L448.4,821.1"/>
<path class="st9" d="M532.1,821.1h-58l-18.5-331.3h58L532.1,821.1"/>
<path class="st9" d="M615.5,822h-58l-16-286.8h58L615.5,822"/>
<path class="st9" d="M699.7,821.1h-58l-14.6-261.5h58L699.7,821.1"/>
<path class="st9" d="M783,821.1h-58l-19-339.2h58L783,821.1"/>
<path class="st9" d="M866.8,821.1h-58l-21-375.8h58L866.8,821.1"/>
<path class="st9" d="M950.1,822h-58L868,389.5h58L950.1,822"/>
<path class="st6" d="M603.6,881.2l0,20.8c0,6.3-7.3,12.6-21.9,17.5c-29.2,9.8-76.9,10.2-107.4,1c-0.5-0.1-1-0.3-1.5-0.5
	c-15.5-4.9-23.2-11.3-23.2-17.8l0-20.7c0,6.5,7.8,13,23.2,17.8c0.5,0.2,1,0.3,1.5,0.5c30.5,9.1,78.2,8.7,107.4-1
	C596.3,893.8,603.6,887.5,603.6,881.2"/>
<path class="st7" d="M578.8,862.9c0.5,0.1,1,0.3,1.5,0.5c30.4,9.6,31.1,25.4,1.4,35.3c-29.2,9.8-76.9,10.2-107.4,1
	c-0.5-0.1-1-0.3-1.5-0.5c-30.4-9.6-31.1-25.4-1.4-35.3C500.7,854.2,548.3,853.8,578.8,862.9"/>
<path class="st6" d="M607.8,852.4l0,20.7c0,6.3-7.3,12.6-21.9,17.5c-29.2,9.8-76.9,10.2-107.4,1c-0.5-0.1-1-0.3-1.5-0.5
	c-15.5-4.9-23.2-11.3-23.2-17.8l0-20.8c0,6.5,7.8,13,23.2,17.8c0.5,0.2,1,0.3,1.5,0.5c30.5,9.1,78.2,8.7,107.4-1
	C600.6,865,607.8,858.7,607.8,852.4"/>
<path class="st7" d="M583.1,834.1c0.5,0.2,1,0.3,1.5,0.5c30.5,9.6,31.1,25.4,1.4,35.3c-29.2,9.8-76.9,10.2-107.4,1
	c-0.5-0.1-1-0.3-1.5-0.5c-30.4-9.6-31.1-25.4-1.4-35.3C504.9,825.4,552.6,825,583.1,834.1"/>
<path class="st6" d="M595.6,823.4l0,20.7c0,6.3-7.3,12.6-21.9,17.5c-29.2,9.8-76.9,10.2-107.4,1c-0.5-0.1-1-0.3-1.5-0.5
	c-15.5-4.9-23.2-11.3-23.2-17.8l0-20.7c0,6.5,7.8,13,23.2,17.8c0.5,0.2,1,0.3,1.5,0.5c30.5,9.1,78.2,8.7,107.4-1
	C588.4,836,595.6,829.7,595.6,823.4"/>
<path class="st7" d="M570.9,805.1c0.5,0.1,1,0.3,1.5,0.5c30.5,9.6,31.1,25.4,1.4,35.3c-29.2,9.8-76.9,10.2-107.4,1
	c-0.5-0.1-1-0.3-1.5-0.5c-30.4-9.6-31.1-25.4-1.4-35.3C492.7,796.4,540.4,796,570.9,805.1"/>
<path class="st6" d="M610.8,799.5l0,20.8c0,6.3-7.3,12.6-21.9,17.5c-29.2,9.8-76.9,10.2-107.4,1c-0.5-0.1-1-0.3-1.5-0.5
	c-15.5-4.9-23.2-11.3-23.2-17.8l0-20.7c0,6.5,7.8,13,23.2,17.8c0.5,0.2,1,0.3,1.5,0.5c30.5,9.1,78.2,8.7,107.4-1
	C603.5,812.1,610.8,805.8,610.8,799.5"/>
<path class="st7" d="M586,781.2c0.5,0.1,1,0.3,1.5,0.5c30.5,9.6,31.1,25.4,1.4,35.3c-29.2,9.7-76.9,10.2-107.4,1
	c-0.5-0.2-1-0.3-1.5-0.5c-30.4-9.6-31.1-25.4-1.4-35.3C507.8,772.5,555.5,772.1,586,781.2"/>
<path class="st6" d="M592.9,775.9l0,20.7c0,6.3-7.3,12.6-21.9,17.5c-29.2,9.8-76.9,10.2-107.4,1c-0.5-0.2-1-0.3-1.5-0.5
	c-15.5-4.9-23.2-11.3-23.2-17.8l0-20.7c0,6.5,7.8,13,23.2,17.8c0.5,0.2,1,0.3,1.5,0.5c30.5,9.1,78.2,8.7,107.4-1
	C585.6,788.5,592.9,782.2,592.9,775.9"/>
<path class="st7" d="M568.1,757.6c0.5,0.1,1,0.3,1.5,0.5c30.5,9.6,31.1,25.4,1.4,35.3c-29.2,9.8-76.9,10.2-107.4,1
	c-0.5-0.2-1-0.3-1.5-0.5c-30.4-9.6-31.1-25.4-1.4-35.3C489.9,748.9,537.6,748.4,568.1,757.6"/>
<path class="st6" d="M605.9,749.2l0,20.7c0,6.3-7.3,12.6-21.9,17.5c-29.2,9.7-76.9,10.2-107.4,1c-0.5-0.1-1-0.3-1.5-0.5
	c-15.5-4.9-23.2-11.3-23.2-17.8l0-20.8c0,6.5,7.8,13,23.2,17.8c0.5,0.2,1,0.3,1.5,0.5c30.5,9.1,78.2,8.7,107.4-1
	C598.6,761.8,605.9,755.5,605.9,749.2"/>
<path class="st8" d="M453.5,757.2l0,13c0,5.9,8.1,11.9,22.1,16.3c0.5,0.2,1,0.3,1.5,0.5c30.1,9,77.8,8.5,106.4-1
	c13.2-4.4,20.8-10.2,20.8-15.9l0-13c-3.7,4.3-10.4,8.1-19.7,11.2c-29.6,9.9-77.2,10.4-108.4,1.1c-0.5-0.2-1-0.3-1.5-0.5
	C464.6,765.6,457.4,761.6,453.5,757.2z M528.6,796.7c-18.7,0-37.5-2.2-52.4-6.7c-0.5-0.2-1-0.3-1.5-0.5
	c-15.7-4.9-24.4-11.8-24.4-19.4l0-20.7c0-0.9,0.7-1.6,1.6-1.6c0.9,0,1.6,0.7,1.6,1.6c0,5.9,8.1,11.9,22.1,16.3
	c0.5,0.2,1,0.3,1.5,0.4c30.1,9,77.8,8.5,106.4-1c13.2-4.4,20.8-10.2,20.8-15.9v0c0-0.9,0.7-1.6,1.6-1.6s1.6,0.7,1.6,1.6c0,0,0,0,0,0
	l0,20.7c0,7.3-8.1,14.1-23,19C569.2,794.1,548.9,796.7,528.6,796.7"/>
<path class="st0" d="M581.2,730.9c0.5,0.1,1,0.3,1.5,0.5c30.5,9.6,31.1,25.4,1.4,35.3c-29.2,9.8-76.9,10.2-107.4,1
	c-0.5-0.1-1-0.3-1.5-0.5c-30.4-9.6-31.1-25.4-1.4-35.3C503,722.2,550.6,721.8,581.2,730.9"/>
<path class="st8" d="M529.3,726c-20.1,0-40.1,2.5-55,7.5c-13.2,4.4-20.8,10.2-20.8,16c0.1,5.9,8.1,11.8,22.1,16.3
	c0.5,0.2,1,0.3,1.5,0.4c30.1,9,77.8,8.5,106.4-1c13.2-4.4,20.8-10.2,20.8-16c-0.1-5.9-8.1-11.8-22.1-16.3c-0.5-0.2-1-0.3-1.5-0.5
	C566.3,728.1,547.8,726,529.3,726z M528.6,775.9c-18.7,0-37.5-2.2-52.4-6.7c-0.5-0.2-1-0.3-1.5-0.5c-15.7-4.9-24.3-11.8-24.4-19.3
	c-0.1-7.3,8.1-14.1,23-19.1c29.6-9.9,77.2-10.4,108.4-1.1c0.5,0.2,1,0.3,1.5,0.5c15.7,4.9,24.3,11.8,24.4,19.3
	c0.1,7.3-8.1,14.1-23,19.1C569.1,773.3,548.9,775.9,528.6,775.9"/>
<path class="st6" d="M778.1,872.5l0,20.7c0,6.3-7.3,12.6-21.9,17.5c-29.2,9.8-76.9,10.2-107.4,1c-0.5-0.2-1-0.3-1.5-0.5
	c-15.5-4.9-23.2-11.3-23.2-17.8l0-20.7c0,6.5,7.8,13,23.2,17.8c0.5,0.1,1,0.3,1.5,0.5c30.5,9.1,78.2,8.7,107.4-1
	C770.8,885,778.1,878.7,778.1,872.5"/>
<path class="st7" d="M753.3,854.2c0.5,0.2,1,0.3,1.5,0.5c30.4,9.6,31.1,25.4,1.4,35.3c-29.2,9.8-76.9,10.2-107.4,1
	c-0.5-0.1-1-0.3-1.5-0.5c-30.4-9.6-31.1-25.4-1.4-35.3C675.1,845.4,722.8,845,753.3,854.2"/>
<path class="st6" d="M784.4,842.3l0,20.7c0,6.3-7.3,12.6-21.9,17.5c-29.2,9.8-76.9,10.2-107.4,1c-0.5-0.1-1-0.3-1.5-0.5
	c-15.5-4.9-23.2-11.3-23.2-17.8l0-20.8c0,6.5,7.8,13,23.2,17.8c0.5,0.2,1,0.3,1.5,0.5c30.5,9.1,78.2,8.7,107.4-1
	C777.1,854.9,784.4,848.6,784.4,842.3"/>
<path class="st7" d="M759.6,824c0.5,0.1,1,0.3,1.5,0.5c30.5,9.6,31.1,25.4,1.4,35.3c-29.2,9.8-76.9,10.2-107.4,1
	c-0.5-0.1-1-0.3-1.5-0.5c-30.4-9.6-31.1-25.4-1.4-35.3C681.5,815.3,729.1,814.9,759.6,824"/>
<path class="st6" d="M781.2,816.8l0,20.8c0,6.3-7.3,12.6-21.9,17.5c-29.2,9.8-76.9,10.2-107.4,1c-0.5-0.1-1-0.3-1.5-0.5
	c-15.5-4.9-23.2-11.3-23.2-17.8l0-20.7c0,6.5,7.8,13,23.2,17.8c0.5,0.1,1,0.3,1.5,0.5c30.5,9.1,78.2,8.7,107.4-1
	C773.9,829.3,781.2,823,781.2,816.8"/>
<path class="st7" d="M756.4,798.5c0.5,0.1,1,0.3,1.5,0.5c30.4,9.6,31.1,25.4,1.4,35.3c-29.2,9.7-76.9,10.2-107.4,1
	c-0.5-0.1-1-0.3-1.5-0.5c-30.4-9.6-31.1-25.4-1.4-35.3C678.2,789.7,725.9,789.3,756.4,798.5"/>
<path class="st6" d="M775.1,787.9l0,20.7c0,6.3-7.3,12.6-21.9,17.5c-29.2,9.8-76.9,10.2-107.4,1c-0.5-0.2-1-0.3-1.5-0.5
	c-15.5-4.9-23.2-11.4-23.2-17.8l0-20.7c0,6.5,7.8,13,23.2,17.8c0.5,0.2,1,0.3,1.5,0.5c30.5,9.1,78.2,8.7,107.4-1
	C767.8,800.5,775.1,794.2,775.1,787.9"/>
<path class="st7" d="M750.3,769.6c0.5,0.2,1,0.3,1.5,0.5c30.5,9.6,31.1,25.4,1.4,35.3c-29.2,9.8-76.9,10.2-107.4,1
	c-0.5-0.1-1-0.3-1.5-0.5c-30.4-9.6-31.1-25.4-1.4-35.3C672.1,760.9,719.8,760.5,750.3,769.6"/>
<path class="st6" d="M781.5,760.3l0,20.8c0,6.3-7.3,12.6-21.9,17.5c-29.2,9.8-76.9,10.2-107.4,1.1c-0.5-0.2-1-0.3-1.5-0.5
	c-15.5-4.9-23.2-11.3-23.2-17.8l0-20.7c0,6.5,7.8,13,23.2,17.8c0.5,0.2,1,0.3,1.5,0.5c30.5,9.1,78.2,8.7,107.4-1
	C774.3,772.9,781.5,766.6,781.5,760.3"/>
<path class="st9" d="M756.8,742c0.5,0.2,1,0.3,1.5,0.5c30.5,9.6,31.1,25.4,1.4,35.3c-29.2,9.8-76.9,10.2-107.4,1
	c-0.5-0.1-1-0.3-1.5-0.5c-30.4-9.6-31.1-25.4-1.4-35.3C678.6,733.3,726.2,732.9,756.8,742"/>
<path class="st6" d="M771.4,739.2l0,20.7c0,6.3-7.3,12.6-21.9,17.5c-29.2,9.8-76.9,10.2-107.4,1c-0.5-0.1-1-0.3-1.5-0.5
	c-15.5-4.9-23.2-11.4-23.2-17.8l0-20.7c0,6.5,7.8,13,23.2,17.8c0.5,0.1,1,0.3,1.5,0.5c30.5,9.1,78.2,8.7,107.4-1
	C764.1,751.8,771.4,745.5,771.4,739.2"/>
<path class="st7" d="M746.6,720.9c0.5,0.2,1,0.3,1.5,0.5c30.5,9.6,31.1,25.4,1.4,35.3c-29.2,9.8-76.9,10.2-107.4,1
	c-0.5-0.1-1-0.3-1.5-0.5c-30.4-9.6-31.1-25.4-1.4-35.3C668.4,712.2,716.1,711.8,746.6,720.9"/>
<path class="st6" d="M781.2,710.3l0,20.7c0,6.3-7.3,12.6-21.9,17.5c-29.2,9.8-76.9,10.2-107.4,1c-0.5-0.2-1-0.3-1.5-0.5
	c-15.5-4.9-23.2-11.3-23.2-17.8l0-20.7c0,6.5,7.8,13,23.2,17.8c0.5,0.2,1,0.3,1.5,0.5c30.5,9.1,78.2,8.7,107.4-1
	C773.9,722.9,781.2,716.6,781.2,710.3"/>
<path class="st7" d="M756.4,692c0.5,0.1,1,0.3,1.5,0.5c30.5,9.6,31.1,25.4,1.4,35.3c-29.2,9.8-76.9,10.2-107.4,1
	c-0.5-0.2-1-0.3-1.5-0.5c-30.5-9.6-31.1-25.4-1.4-35.3C678.3,683.3,725.9,682.9,756.4,692"/>
<path class="st6" d="M772.2,679.7l0,20.7c0,6.3-7.3,12.6-21.9,17.5c-29.2,9.8-76.9,10.2-107.4,1c-0.5-0.1-1-0.3-1.5-0.5
	c-15.5-4.9-23.2-11.3-23.2-17.8l0-20.7c0,6.5,7.8,13,23.2,17.8c0.5,0.1,1,0.3,1.5,0.5c30.5,9.1,78.2,8.7,107.4-1
	C764.9,692.3,772.2,686,772.2,679.7"/>
<path class="st7" d="M747.5,661.4c0.5,0.2,1,0.3,1.5,0.5c30.5,9.6,31.1,25.4,1.4,35.3c-29.2,9.8-76.9,10.2-107.4,1
	c-0.5-0.1-1-0.3-1.5-0.5c-30.4-9.6-31.1-25.4-1.4-35.3C669.3,652.7,716.9,652.3,747.5,661.4"/>
<path class="st6" d="M777.9,650.7l0,20.7c0,6.3-7.3,12.6-21.9,17.5c-29.2,9.8-76.9,10.2-107.4,1c-0.5-0.1-1-0.3-1.5-0.5
	c-15.5-4.9-23.2-11.3-23.2-17.8l0-20.7c0,6.5,7.8,13,23.2,17.8c0.5,0.2,1,0.3,1.5,0.5c30.5,9.1,78.2,8.7,107.4-1
	C770.7,663.3,778,657,777.9,650.7"/>
<path class="st8" d="M625.6,658.7l0,13c0,5.9,8.1,11.9,22.1,16.3c0.5,0.2,1,0.3,1.5,0.5c30.1,9,77.8,8.5,106.4-1
	c13.2-4.4,20.8-10.2,20.8-15.9l0-13c-3.7,4.3-10.4,8.1-19.7,11.2c-29.6,9.9-77.2,10.4-108.4,1.1c-0.5-0.1-1-0.3-1.5-0.5
	C636.6,667.1,629.4,663.1,625.6,658.7z M700.7,698.2c-18.7,0-37.5-2.2-52.4-6.7c-0.5-0.2-1-0.3-1.5-0.5
	c-15.7-4.9-24.4-11.8-24.4-19.4l0-20.7c0,0,0,0,0,0c0-0.9,0.7-1.6,1.6-1.6c0.9,0,1.6,0.7,1.6,1.6c0,5.9,8.1,11.9,22.1,16.3
	c0.5,0.1,1,0.3,1.5,0.5c30.1,9,77.8,8.5,106.4-1c13.2-4.4,20.7-10.2,20.8-15.9v0c0-0.9,0.7-1.6,1.6-1.6c0.9,0,1.6,0.7,1.6,1.6
	c0,0,0,0,0,0l0,20.7c0,7.3-8.1,14-23,19C741.2,695.6,720.9,698.2,700.7,698.2"/>
<path class="st0" d="M753.2,632.4c0.5,0.2,1,0.3,1.5,0.5c30.5,9.6,31.1,25.4,1.4,35.3c-29.2,9.8-76.9,10.2-107.4,1
	c-0.5-0.1-1-0.3-1.5-0.5c-30.4-9.6-31.1-25.4-1.4-35.3C675,623.7,722.7,623.3,753.2,632.4"/>
<path class="st8" d="M701.3,627.5c-20,0-40.1,2.5-55,7.5c-13.2,4.4-20.8,10.2-20.8,16c0,5.9,8.1,11.8,22.1,16.3
	c0.5,0.1,1,0.3,1.5,0.5c30.1,9,77.8,8.5,106.4-1c13.2-4.4,20.8-10.2,20.8-16c-0.1-5.9-8.1-11.8-22.1-16.3c-0.5-0.1-1-0.3-1.5-0.4
	C738.3,629.7,719.8,627.5,701.3,627.5z M700.7,677.5c-18.7,0-37.5-2.2-52.4-6.7c-0.5-0.1-1-0.3-1.5-0.5
	c-15.7-4.9-24.3-11.8-24.4-19.3c-0.1-7.3,8.1-14.1,23-19.1c29.6-9.9,77.2-10.4,108.4-1.1c0.5,0.1,1,0.3,1.5,0.5
	c15.7,4.9,24.3,11.8,24.4,19.3c0.1,7.3-8.1,14.1-23,19.1C741.2,674.9,720.9,677.5,700.7,677.5"/>
<path class="st6" d="M764.2,185.2c-12.2-14-10.7-35.2,3.3-47.3c14-12.2,35.1-10.7,47.3,3.3c12.1,14,10.7,35.2-3.3,47.3
	C797.6,200.6,776.4,199.1,764.2,185.2z M828.8,218.3l9.8-8.6l-6.7-12.5c1.9-2.4,3.6-4.9,5.1-7.5l14.1,1.5l4.2-12.3l-12.1-7.5
	c0.5-3,0.7-6,0.6-9l13-5.7l-2.5-12.8l-14.2-0.4c-1.1-2.8-2.4-5.5-4-8.1l8.4-11.5l-8.5-9.8l-12.5,6.7c-2.4-1.9-4.9-3.6-7.5-5.1
	l1.6-14.1l-12.3-4.2l-7.5,12.1c-3-0.5-6-0.7-9-0.6l-5.7-13l-12.8,2.5l-0.4,14.2c-2.8,1.1-5.5,2.4-8.1,4l-11.5-8.4l-9.8,8.6l6.8,12.5
	c-1.9,2.4-3.6,4.9-5.1,7.5l-14.1-1.5l-4.2,12.3l12.1,7.5c-0.5,3-0.7,6-0.6,9l-13,5.7l2.5,12.8l14.2,0.4c1.1,2.8,2.4,5.5,4,8.1
	l-8.4,11.5l8.5,9.8l12.5-6.8c2.4,1.9,4.9,3.6,7.5,5.1l-1.5,14.1l12.3,4.2l7.5-12.1c3,0.5,6,0.7,9,0.6l5.7,13l12.8-2.5l0.4-14.2
	c2.8-1.1,5.5-2.4,8.1-4L828.8,218.3"/>
<path class="st6" d="M929.5,273.7c-19.3-22.2-17-56,5.2-75.3c22.2-19.4,55.9-17,75.3,5.2s17,56-5.2,75.3
	C982.6,298.2,948.8,295.9,929.5,273.7z M1032.3,326.3l15.6-13.6l-10.7-19.9c3.1-3.8,5.8-7.8,8.1-12l22.5,2.5l6.7-19.6l-19.3-11.9
	c0.7-4.8,1.1-9.6,1-14.4l20.7-9.1l-4-20.4l-22.6-0.7c-1.7-4.4-3.9-8.8-6.4-13l13.4-18.3l-13.6-15.6l-19.9,10.7
	c-3.8-3.1-7.8-5.8-12-8.1l2.5-22.5l-19.6-6.7L982.9,153c-4.8-0.7-9.6-1.1-14.4-1l-9.1-20.7l-20.4,4l-0.7,22.6
	c-4.4,1.7-8.8,3.9-13,6.4l-18.3-13.4l-15.6,13.6l10.7,19.9c-3,3.8-5.8,7.8-8.1,12l-22.5-2.5l-6.7,19.6l19.3,11.9
	c-0.7,4.8-1.1,9.6-1,14.4l-20.7,9.1l4,20.4l22.6,0.7c1.7,4.5,3.9,8.8,6.4,13L882,301.2l13.6,15.6l19.9-10.7c3.8,3.1,7.8,5.8,12,8.1
	l-2.5,22.5l19.6,6.7l11.9-19.3c4.8,0.7,9.6,1.1,14.4,1l9.1,20.7l20.3-4l0.7-22.6c4.4-1.7,8.8-3.9,13-6.4L1032.3,326.3"/>
<path class="st6" d="M602,88.9l-94.9,25.5c-4.9,1.3-6.7,7.4-3.3,11.2l9.9,11.1c2.5,2.8,2.3,7.1-0.5,9.6l-68.3,62.8
	c-2.8,2.5-7.1,2.3-9.6-0.5l-57.9-64.5c-2.5-2.8-6.8-3-9.6-0.5L169.9,326.5c-2.8,2.5-3,6.8-0.5,9.6l21.2,23.6c2.5,2.8,6.8,3,9.6,0.5
	l164.1-152.4c2.8-2.5,7.1-2.3,9.6,0.5l57.9,64.4c2.5,2.8,6.8,3,9.6,0.5l102-93.1c2.8-2.5,7.1-2.3,9.7,0.5l10.7,12
	c3.4,3.8,9.7,2.7,11.5-2.1L610.2,98C612.1,92.7,607.4,87.5,602,88.9"/>
<path class="st8" d="M628,977.3c-27.6,0-57.3-3-85-11.6c-0.8-0.3-1.3-1.2-1.1-2c0.3-0.8,1.2-1.3,2-1.1
	c86.1,26.8,191.3-1.8,192.3-2.1c0.9-0.2,1.7,0.3,2,1.1c0.2,0.9-0.3,1.8-1.1,2C736.4,963.9,686.9,977.3,628,977.3"/>
<path class="st8" d="M631.2,960.2c-27.8,0-57.3-2.9-84.3-11.3c-0.9-0.3-1.3-1.2-1.1-2c0.3-0.9,1.2-1.3,2-1.1
	c86.1,26.8,197.7-2.9,198.8-3.2c0.9-0.2,1.7,0.3,2,1.1c0.2,0.9-0.3,1.8-1.1,2C746.6,945.9,692.9,960.2,631.2,960.2"/>
<path class="st8" d="M589.7,247.5c-0.9,0-1.6-0.7-1.6-1.6l-0.1-5.7c0-0.9,0.7-1.6,1.6-1.7c0.9,0,1.6,0.7,1.6,1.6l0.1,5.7
	C591.3,246.7,590.6,247.4,589.7,247.5C589.7,247.5,589.7,247.5,589.7,247.5"/>
<path class="st8" d="M590.1,267.5c-0.9,0-1.6-0.7-1.6-1.6l-0.1-5.7c0-0.9,0.7-1.6,1.6-1.7c0,0,0,0,0,0c0.9,0,1.6,0.7,1.6,1.6
	l0.1,5.7C591.7,266.7,591,267.5,590.1,267.5C590.1,267.5,590.1,267.5,590.1,267.5"/>
<path class="st8" d="M577.1,254.7c-0.9,0-1.6-0.7-1.6-1.6c0-0.9,0.7-1.6,1.6-1.6l5.6,0c0,0,0,0,0,0c0.9,0,1.6,0.7,1.6,1.6
	c0,0.9-0.7,1.6-1.6,1.6L577.1,254.7C577.1,254.7,577.1,254.7,577.1,254.7"/>
<path class="st8" d="M596.9,254.6c-0.9,0-1.6-0.7-1.6-1.6c0-0.9,0.7-1.6,1.6-1.6l5.6,0c0,0,0,0,0,0c0.9,0,1.6,0.7,1.6,1.6
	c0,0.9-0.7,1.6-1.6,1.6L596.9,254.6C596.9,254.6,596.9,254.6,596.9,254.6"/>
<path class="st8" d="M1031,533c-0.9,0-1.6-0.7-1.6-1.6l-0.1-5.7c0-0.9,0.7-1.6,1.6-1.6c0.9,0,1.6,0.7,1.7,1.6l0.1,5.7
	C1032.7,532.2,1032,533,1031,533C1031.1,533,1031.1,533,1031,533"/>
<path class="st8" d="M1031.5,553c-0.9,0-1.6-0.7-1.6-1.6l-0.1-5.7c0-0.9,0.7-1.6,1.6-1.7c0.9,0,1.6,0.7,1.7,1.6l0.1,5.7
	C1033.1,552.3,1032.4,553,1031.5,553C1031.5,553,1031.5,553,1031.5,553"/>
<path class="st8" d="M1018.5,540.3c-0.9,0-1.6-0.7-1.6-1.6c0-0.9,0.7-1.6,1.6-1.6l5.6,0c0,0,0,0,0,0c0.9,0,1.6,0.7,1.6,1.6
	c0,0.9-0.7,1.6-1.6,1.6L1018.5,540.3C1018.5,540.3,1018.5,540.3,1018.5,540.3"/>
<path class="st8" d="M1038.2,540.1c-0.9,0-1.6-0.7-1.6-1.6c0-0.9,0.7-1.6,1.6-1.6l5.6,0h0c0.9,0,1.6,0.7,1.6,1.6
	c0,0.9-0.7,1.6-1.6,1.6L1038.2,540.1C1038.3,540.1,1038.3,540.1,1038.2,540.1"/>
<path class="st8" d="M698.9,108.7c-0.4,0-0.8-0.1-1.1-0.4c-0.6-0.6-0.7-1.6,0-2.3l4-4.1c0.6-0.6,1.6-0.7,2.3,0
	c0.6,0.6,0.7,1.6,0.1,2.3l-4,4.1C699.8,108.5,699.3,108.7,698.9,108.7"/>
<path class="st8" d="M685.1,123.2c-0.4,0-0.8-0.1-1.1-0.4c-0.6-0.6-0.7-1.6-0.1-2.3l4-4.1c0.6-0.6,1.6-0.7,2.3,0
	c0.6,0.6,0.7,1.6,0.1,2.3l-4,4.1C685.9,123,685.5,123.2,685.1,123.2"/>
<path class="st8" d="M688.9,108.9c-0.4,0-0.8-0.1-1.1-0.5l-4-4c-0.6-0.6-0.6-1.7,0-2.3s1.6-0.6,2.3,0l4,4c0.6,0.6,0.6,1.7,0,2.3
	C689.8,108.8,689.4,108.9,688.9,108.9"/>
<path class="st8" d="M703,122.8c-0.4,0-0.8-0.2-1.1-0.5l-4-4c-0.6-0.6-0.6-1.6,0-2.3c0.6-0.6,1.6-0.6,2.3,0l4,4
	c0.6,0.6,0.6,1.6,0,2.3C703.8,122.6,703.4,122.8,703,122.8"/>
<path class="st8" d="M886.1,136.9c-6.6,0-11.9-5.3-11.9-11.9c0-6.5,5.3-11.9,11.9-11.9c0.9,0,1.6,0.7,1.6,1.6c0,0.9-0.7,1.6-1.6,1.6
	c-4.8,0-8.6,3.9-8.6,8.6c0,4.8,3.9,8.6,8.6,8.6c4.8,0,8.7-3.9,8.7-8.6c0-0.9,0.7-1.6,1.6-1.6c0.9,0,1.6,0.7,1.6,1.6
	C897.9,131.6,892.6,136.9,886.1,136.9"/>
<path class="st8" d="M250,199.3c-0.4,0-0.8-0.1-1.1-0.4c-0.6-0.6-0.7-1.6-0.1-2.3l5.1-5.3c0.6-0.6,1.6-0.7,2.3,0
	c0.6,0.6,0.7,1.6,0.1,2.3l-5.1,5.3C250.9,199.2,250.4,199.3,250,199.3"/>
<path class="st8" d="M237.2,199.6c-0.4,0-0.8-0.2-1.1-0.5l-5.2-5.1c-0.6-0.6-0.6-1.6,0-2.3c0.6-0.6,1.7-0.6,2.3,0l5.2,5.1
	c0.6,0.6,0.6,1.7,0,2.3C238.1,199.5,237.6,199.6,237.2,199.6"/>
<path class="st8" d="M255.3,217.4c-0.4,0-0.8-0.2-1.1-0.5l-5.2-5.1c-0.6-0.6-0.6-1.6,0-2.3c0.6-0.6,1.7-0.6,2.3,0l5.2,5.1
	c0.6,0.6,0.6,1.6,0,2.3C256.1,217.3,255.7,217.4,255.3,217.4"/>
<path class="st8" d="M232.2,217.9c-0.4,0-0.8-0.1-1.1-0.4c-0.6-0.6-0.7-1.6,0-2.3l5.1-5.3c0.6-0.6,1.6-0.7,2.3,0
	c0.6,0.6,0.7,1.6,0.1,2.3l-5.1,5.3C233.1,217.8,232.7,217.9,232.2,217.9"/>
<path class="st8" d="M291.1,143.2L291.1,143.2L291.1,143.2z M295.1,144c-1.1,0-2.3,0.2-3.3,0.7c-4.2,1.9-6.1,6.9-4.2,11.2
	c0.9,2.1,2.5,3.7,4.6,4.5c2,0.8,4.3,0.7,6.2-0.2c4.2-1.9,6.1-6.9,4.2-11.2c-0.9-2.1-2.5-3.7-4.6-4.5
	C297.1,144.2,296.1,144,295.1,144z M295.1,164.2c-1.4,0-2.8-0.3-4.1-0.8c-2.9-1.1-5.2-3.3-6.4-6.2c-2.5-5.9,0.1-12.8,5.9-15.4
	c2.8-1.3,5.9-1.3,8.7-0.2c2.9,1.1,5.2,3.3,6.4,6.2c2.5,5.9-0.1,12.8-5.9,15.4C298.3,163.9,296.7,164.2,295.1,164.2"/>
<path class="st8" d="M907.3,424.7c10.1-10.9,25.1-13.2,36.4-10.2c14.3,3.9,21.5,16.3,26.6,25c9,15.4,4.6,21,11.7,30
	c12.5,15.9,42.8,5.4,57.6,17.5c35.5,29.3,16.1,77.7-15.3,100.5c-21,15.2-49.5,6.4-57.3,4c-23.6-7.3-62.6-21.5-66.4-55.6
	c-2.5-22.9,20.8-41.2,8.3-60.3c-3.2-4.9-5.8-6.2-8.2-12.3C896.8,453.6,895.9,437,907.3,424.7"/>
<path class="st8" d="M944.1,427.4c-5.4-4.4-2-17.2,1.5-24.1c1.3-2.6,7-14.2,14.6-13.8c7.8,0.5,15.2,13.5,12.5,23.9
	C969.2,426.3,950.4,432.5,944.1,427.4"/>
<path class="st6" d="M980.4,506.3c-16.2-5.3-40.9-9.1-70.4,0.3c-10.8,3.4-18.5,12.9-19.8,24.1l-24,138.4
	c-1.2,10.1,12.3,19.8,21.7,23.4c9.9,3.8,24.9,7.3,46,7.3c22.7,0,50.1-0.1,59.3-4.2c0.3-0.1,0.5-0.2,0.8-0.4
	c11.9-5.5,18.8-18,17.7-31.1l-4.9-20.3c-5.4-22.4-7.9-45.5-7.4-68.5l0.8-40.3C1000.8,522.2,992.7,510.3,980.4,506.3"/>
<path class="st6" d="M866.9,565.8c0,0,19.2-53.2,40.7-58.3l-10.9,75.3L866.9,565.8"/>
<path class="st6" d="M1028,596.8c8.2-6.5,11.7-17.3,8.7-27.4c-2.6-9.1-6-20-8.8-27.8c-9.9-27-30.4-33-38.4-34.9
	c-1.3-0.3-15.5-2.2-15.5-2.2l8.6,82.6l36.6,15L1028,596.8"/>
<path class="st8" d="M1002.1,662.7c-0.6,0-1.1-0.3-1.4-0.9c-16.3-30.9-65.8-32.1-87.3-27.9c-13.6,2.7-27.7,11.8-27.9,11.9
	c-0.7,0.5-1.7,0.3-2.2-0.5c-0.5-0.7-0.3-1.7,0.5-2.2c0.6-0.4,14.8-9.5,29-12.3c10.1-2,28.2-3,46.1,0.6c21.5,4.4,37,14.4,44.7,29
	c0.4,0.8,0.1,1.8-0.7,2.2C1002.6,662.6,1002.4,662.7,1002.1,662.7"/>
<path class="st7" d="M942.9,609.2l-94.2-0.1c-2.4,0-4.5-1.6-5-4l-16-66.5c-0.8-3.3,1.7-6.4,5.1-6.4l94.2,0.1c2.4,0,4.5,1.6,5,4
	l16,66.5C948.8,606.1,946.3,609.2,942.9,609.2"/>
<path class="st8" d="M832.7,533.8c-1.1,0-2.1,0.5-2.8,1.4c-0.7,0.9-0.9,2-0.7,3.1l16,66.5c0.4,1.6,1.8,2.7,3.5,2.7l94.2,0.1
	c0,0,0,0,0,0c1.1,0,2.1-0.5,2.8-1.4c0.7-0.9,0.9-2,0.7-3.1l-16-66.5c-0.4-1.6-1.8-2.7-3.5-2.7L832.7,533.8z M942.9,610.8
	C942.9,610.8,942.9,610.8,942.9,610.8l-94.2-0.1c-3.1,0-5.8-2.1-6.6-5.2l-16-66.5c-0.5-2,0-4.2,1.3-5.8c1.3-1.7,3.3-2.6,5.4-2.6h0
	l94.2,0.1c3.1,0,5.9,2.1,6.6,5.2l16,66.5c0.5,2,0,4.2-1.3,5.8C947,609.9,945,610.8,942.9,610.8"/>
<path class="st0" d="M879.5,572c0.9,4,4.7,6.6,8.5,5.7c3.7-0.9,6-4.8,5.1-8.9c-0.9-4-4.7-6.6-8.5-5.7
	C880.9,564,878.6,567.9,879.5,572"/>
<path class="st0" d="M833.2,563.9l1.2,4.8c0.5,2,2.7,3.1,4.6,2.2l15.9-7.6c2.1-1,4.6,0.1,5.4,2.3c1.5,4.5,0.2,12.6-20.1,20.8
	c-12.4,5-12.8-8.6-10.8-16.9C830.4,565.9,833.2,563.9,833.2,563.9"/>
<path class="st8" d="M832.3,567.1c-0.5,0.7-1,1.7-1.3,2.8c-1.4,5.6-1.3,12.6,1.5,15c1.5,1.3,3.9,1.3,7.1,0
	c14.4-5.8,21.2-12.5,19.1-18.8c-0.2-0.6-0.6-1.1-1.2-1.4c-0.6-0.3-1.3-0.3-1.9,0l-15.9,7.6c-1.3,0.6-2.9,0.6-4.2,0
	c-1.3-0.6-2.3-1.8-2.7-3.2L832.3,567.1z M835.5,589.1c-2,0-3.6-0.6-5-1.8c-4.3-3.7-4.1-12.1-2.6-18.2c1-4.2,4.3-6.5,4.4-6.6
	c0.4-0.3,1-0.4,1.5-0.2c0.5,0.2,0.9,0.6,1,1.1l1.2,4.8c0.1,0.5,0.5,0.9,0.9,1.1c0.5,0.2,1,0.2,1.4,0l15.9-7.6
	c1.4-0.7,3.1-0.7,4.6-0.1c1.4,0.6,2.6,1.8,3,3.3c1.9,5.8-0.2,14.4-21,22.8C838.9,588.7,837.1,589.1,835.5,589.1"/>
<path class="st0" d="M970.7,543.5c0,0,42.3,23.8,51,31.3c8.7,7.5,18.2,13.2,5.8,29.5c-10.5,13.9-28.9,1.5-61.5-45.2
	c-1.5-2.2-4-3.5-6.6-4.1c-3.3-0.7-8-3.3-10.2-11.9c0,0-15.4,2.2-16.8-5.3l23.2-3.7c3.1-0.6,6.3,0.5,8.5,2.7L970.7,543.5"/>
<path class="st8" d="M949.3,541.5c0.7,0,1.4,0.5,1.6,1.2c1.9,7.6,5.9,10,9,10.7c3.3,0.7,5.9,2.4,7.6,4.8
	c23.3,33.4,39.7,49.7,50.4,49.9c3.3,0.1,6.1-1.5,8.5-4.7c10.5-13.8,4.6-18.7-3.6-25.6c-0.7-0.6-1.4-1.1-2-1.7
	c-8.5-7.3-50.3-30.9-50.8-31.1c-0.1-0.1-0.3-0.2-0.4-0.3l-6.6-6.8c-1.8-1.9-4.5-2.7-7-2.3l-21.2,3.4c2.6,3.2,11.1,2.9,14.3,2.5
	C949.1,541.5,949.2,541.5,949.3,541.5z M1018,611.3c-0.1,0-0.2,0-0.3,0c-11.9-0.2-28.7-16.5-52.9-51.3c-1.2-1.7-3.2-2.9-5.7-3.5
	c-3-0.7-8.4-3.1-11-11.7c-4.1,0.4-15.8,0.7-17.2-6.8c-0.1-0.4,0-0.9,0.3-1.2c0.3-0.4,0.6-0.6,1.1-0.7l23.2-3.7
	c3.6-0.6,7.3,0.6,9.9,3.2l6.4,6.6c3.6,2,42.6,24.1,51.1,31.4c0.7,0.6,1.3,1.1,2,1.7c8.1,6.7,16.4,13.7,4.1,30
	C1025.9,609.3,1022.2,611.3,1018,611.3"/>
<path class="st0" d="M927.3,480.8c-2.3,1.1-5,0.7-6.8-1.1c-2-2-3.7-4.2-5-6.4l-2.6,0.1c-0.8,0-1.5-0.6-1.6-1.5l-0.4-10.1
	c-2-3.3-2.8-6-3-8.2c-0.3-3.8,3-10.5,6.4-12.2c4.6-2.2,12.9-3.4,17.2,3.1c1.9,2.8,4.9,4.8,6.7,4.5c1.7-0.3,2.4-1.8,3.3-3.3
	c1.6-2.8,5.5-5.5,9.3-1c3.8,4.5,1.2,8.7-1.2,12.2c-1,1.4,0.1,5.3,0.5,7l5.6,23.8c1.4,6.1,5.8,11.1,11.7,13.4l6,2.3
	c0,0-6.6,20.1-33.1,19.5c-20.2-0.4-18.6-17-18.6-17l2.7-1.2c6.9-3.1,10.7-10.6,9.1-18l-1.8-7.9L927.3,480.8"/>
<path class="st8" d="M923.2,506.8c0,1.8,0.5,5.9,3.4,9.3c2.9,3.2,7.5,4.9,13.6,5.1c20.8,0.5,28.8-12.6,30.9-17l-4.4-1.7
	c-6.4-2.4-11.1-7.9-12.7-14.5l-5.7-24.2c-0.7-3-1.3-6.1-0.1-7.9c2.6-3.8,4.2-6.8,1.3-10.3c-1.1-1.3-2.2-1.9-3.3-1.8
	c-1.5,0.1-2.7,1.5-3.3,2.6l-0.2,0.3c-0.8,1.5-1.9,3.4-4.2,3.8c-2.8,0.5-6.4-2.3-8.3-5.2c-3.9-5.9-11.6-4.2-15.1-2.5
	c-2.6,1.3-5.8,7.3-5.5,10.6c0.2,2.3,1.1,4.8,2.7,7.5c0.1,0.2,0.2,0.5,0.2,0.8l0.4,10l2.5,0c0.5,0,1.1,0.3,1.4,0.8
	c1.4,2.2,3,4.3,4.8,6.1c1.3,1.3,3.3,1.7,5,0.8l4.2-2.1c0.4-0.2,1-0.2,1.4,0c0.4,0.2,0.8,0.6,0.9,1.1l1.8,7.9
	c1.8,8.1-2.4,16.5-10,19.9L923.2,506.8z M941.3,524.4c-0.4,0-0.7,0-1.1,0c-7.1-0.2-12.5-2.2-16-6.2c-4.8-5.4-4.2-12.3-4.2-12.6
	c0.1-0.6,0.4-1.1,1-1.3l2.7-1.2c6.2-2.7,9.6-9.6,8.1-16.2l-1.3-5.8l-2.3,1.2c-2.9,1.4-6.4,0.9-8.7-1.4c-1.8-1.8-3.4-3.8-4.7-5.9
	l-1.7,0c0,0,0,0-0.1,0c-1.7,0-3.1-1.3-3.1-3l-0.4-9.7c-1.8-3-2.8-5.8-3-8.6c-0.3-4.2,3.2-11.7,7.3-13.7c6.1-3,14.7-3.1,19.2,3.6
	c1.7,2.5,4.2,3.9,5.1,3.8c0.8-0.1,1.2-0.7,2-2.2l0.2-0.3c1-1.9,3.1-4,5.8-4.2c1.5-0.1,3.8,0.2,6.1,2.9c4.7,5.6,1.1,11-1.1,14.2
	c-0.2,0.4-0.3,1.6,0.6,5.3l0.1,0.4l5.6,23.8c1.3,5.6,5.3,10.2,10.7,12.2l6,2.3c0.8,0.3,1.2,1.2,1,2
	C974.8,504,967.7,524.4,941.3,524.4"/>
<path class="st0" d="M928.7,896.1l14,41.9c0,0-15.3-1.3-16.7-1c-1.5,0.3-19.3-38.2-19.3-38.2L928.7,896.1"/>
<path class="st8" d="M925.8,935.4c0,0-0.1,0-0.1,0C925.7,935.4,925.8,935.4,925.8,935.4z M926.8,935.3c2.7,0,9.2,0.5,13.6,0.9
	l-12.8-38.3l-18.5,2.2c7.3,15.6,15.4,32.3,17.5,35.2C926.7,935.3,926.7,935.3,926.8,935.3z M942.7,939.6c0,0-0.1,0-0.1,0
	c-7.2-0.6-15.3-1.2-16.3-1c-1.5,0.3-2.1,0.4-11.9-19.9c-4.6-9.5-9.1-19.1-9.1-19.2c-0.2-0.5-0.2-1,0.1-1.5c0.2-0.5,0.7-0.8,1.2-0.8
	l22-2.7c0.7-0.1,1.5,0.4,1.7,1.1l14,41.9c0.2,0.5,0.1,1.1-0.3,1.5C943.7,939.4,943.2,939.6,942.7,939.6"/>
<path class="st7" d="M939.5,928.8c0,0-21.1-8.7-25,2.2c-5,13.8-12.7,34.9-12.7,34.9c-1.3,3.7,1.2,7.6,5.1,7.9
	c7.7,0.6,19.2,1.1,24.6-0.8c8.5-3,22.5-29.8,22.5-29.8l-4.3-22.8C949.6,920.5,942,919.4,939.5,928.8"/>
<path class="st8" d="M924.5,927.1c-1.9,0-3.7,0.3-5.2,0.9c-1.6,0.7-2.7,1.9-3.3,3.5c-4.9,13.7-12.7,34.7-12.7,34.9
	c-0.4,1.3-0.3,2.6,0.4,3.8c0.7,1.1,1.9,1.9,3.3,2c11.5,0.9,20,0.7,23.9-0.7c6.3-2.2,17.3-20.8,21.3-28.5l-4-20.9
	c-1.9,0.1-5.6,1.2-7.2,7.1c-0.1,0.4-0.4,0.8-0.8,1c-0.4,0.2-0.9,0.2-1.3,0C938.8,930.2,931.1,927.1,924.5,927.1z M919.3,975.9
	c-4.2,0-8.7-0.3-12.5-0.6c-2.4-0.2-4.4-1.4-5.7-3.4c-1.3-2-1.6-4.4-0.8-6.6c0.1-0.2,7.8-21.2,12.7-34.9c0.9-2.5,2.6-4.3,5-5.4
	c6.4-2.9,16.5,0.2,20.5,1.6c2.6-7,8.4-8.2,11.4-7.8c0.7,0.1,1.2,0.6,1.4,1.3l4.3,22.8c0.1,0.4,0,0.7-0.2,1.1
	c-1.5,2.8-14.6,27.4-23.4,30.5C929,975.6,924.3,975.9,919.3,975.9"/>
<path class="st8" d="M928.9,966.3h-21.7c-0.9,0-1.6-0.7-1.6-1.6c0-0.9,0.7-1.6,1.6-1.6h21.7c0.9,0,1.6,0.7,1.6,1.6
	C930.5,965.5,929.8,966.3,928.9,966.3"/>
<path class="st0" d="M968.5,906.4l-4.8,42.1l-19.2-5.3l1.5-38L968.5,906.4"/>
<path class="st8" d="M946.2,942l16.1,4.4l4.4-38.5l-19.1-0.9L946.2,942z M963.7,950.1c-0.1,0-0.3,0-0.4-0.1l-19.2-5.3
	c-0.7-0.2-1.2-0.9-1.2-1.6l1.5-38c0-0.4,0.2-0.8,0.5-1.1c0.3-0.3,0.7-0.4,1.2-0.4l22.5,1.1c0.4,0,0.9,0.2,1.2,0.6
	c0.3,0.3,0.4,0.8,0.4,1.2l-4.8,42.1c-0.1,0.5-0.3,0.9-0.7,1.2C964.3,950,964,950.1,963.7,950.1"/>
<path class="st7" d="M965.5,979.6h-30.3c-4.1,0-7.3-3.6-6.7-7.7c1-6.9,4.3-18.2,14.2-33.9c1.1-1.7,3-2.8,5-2.8h9.2
	c1.6,0,2.9,1.2,3.1,2.8l0.7,6.7l2.8-2.9c1.1-1.1,3-0.7,3.5,0.8c1.8,5.4,5,16.9,5.2,30.1C972.3,976.5,969.3,979.6,965.5,979.6"/>
<path class="st8" d="M947.7,936.9c-1.5,0-2.8,0.8-3.6,2c-9.8,15.4-13,26.6-14,33.2c-0.2,1.5,0.2,3,1.2,4.1c1,1.1,2.4,1.8,3.9,1.8
	h30.3c1.4,0,2.7-0.5,3.7-1.5c1-1,1.5-2.3,1.5-3.7c-0.2-12.8-3.3-24.1-5.2-29.6c-0.1-0.2-0.2-0.3-0.3-0.3c-0.1,0-0.3,0-0.5,0.1
	l-2.8,2.9c-0.4,0.4-1.1,0.6-1.7,0.4c-0.6-0.2-1-0.7-1.1-1.4l-0.7-6.7c-0.1-0.8-0.7-1.3-1.5-1.3H947.7z M965.5,981.2h-30.3
	c-2.4,0-4.7-1-6.3-2.9c-1.6-1.8-2.3-4.3-1.9-6.7c1-6.9,4.4-18.6,14.4-34.5c1.4-2.2,3.8-3.5,6.3-3.5h9.2c2.4,0,4.4,1.8,4.7,4.2
	l0.3,3.2l0.4-0.4c0.9-0.9,2.2-1.3,3.5-1c1.3,0.3,2.3,1.2,2.7,2.5c1.9,5.7,5.1,17.3,5.3,30.6c0,2.3-0.8,4.4-2.4,6
	C969.9,980.3,967.8,981.2,965.5,981.2"/>
<path class="st8" d="M965.9,973.9h-30.7c-0.9,0-1.6-0.7-1.6-1.6c0-0.9,0.7-1.6,1.6-1.6h30.7c0.9,0,1.6,0.7,1.6,1.6
	C967.5,973.2,966.8,973.9,965.9,973.9"/>
<path class="st8" d="M896.5,653.4c0.8-1.9,2.4-3.4,4.4-4.1c11.1-3.5,49.8-12.7,89.6,12.9c1.9,1.2,3.1,3.2,3.2,5.5
	c1.4,20.2,6.8,126.1-26.6,251.4l-22.5-1.6l-4.6-214.2c0,0-33.4,78.5-6.2,203.5l-23.4,4.3c0,0-34.3-45.1-40.4-114.1
	C864.4,736,890.4,668.2,896.5,653.4"/>
<path class="st9" d="M961.3,820.2c-0.9,0-1.6-0.7-1.6-1.5c0-0.9,0.7-1.6,1.5-1.7c18.6-0.8,20.8-27,20.8-27.3
	c0.1-0.9,0.8-1.5,1.7-1.5c0.9,0.1,1.6,0.8,1.5,1.7C985.3,790.3,982.8,819.3,961.3,820.2C961.4,820.2,961.3,820.2,961.3,820.2"/>
<path class="st9" d="M938,724.5C937.9,724.5,937.9,724.5,938,724.5c-0.9,0-1.6-0.8-1.6-1.7l0.6-20.4c0.1-3.5-1.5-6.8-4.4-8.8
	l-8.8-6.2c-0.7-0.5-0.9-1.5-0.4-2.2c0.5-0.7,1.5-0.9,2.2-0.4l8.8,6.2c3.7,2.6,5.9,6.9,5.8,11.5l-0.6,20.4
	C939.5,723.8,938.8,724.5,938,724.5"/>
<path class="st0" d="M264,906.4l-3.9,37.6l-15.5-0.3l-0.7-37.1L264,906.4"/>
<path class="st8" d="M246.2,942.2l12.4,0.2l3.6-34.4l-16.6,0.2L246.2,942.2z M260.1,945.6C260.1,945.6,260.1,945.6,260.1,945.6
	l-15.5-0.3c-0.9,0-1.6-0.7-1.6-1.6l-0.7-37.1c0-0.4,0.2-0.8,0.5-1.2c0.3-0.3,0.7-0.5,1.1-0.5l20-0.3c0.5,0,0.9,0.2,1.2,0.5
	c0.3,0.3,0.5,0.8,0.4,1.3l-3.9,37.6C261.6,945,260.9,945.6,260.1,945.6"/>
<path class="st0" d="M259.1,980.2c-5.6,0.6-14.8,1-25.5-0.8c-3.5-0.6-5.7-4.1-4.8-7.5c2.7-9.5,7.1-27.9,14.4-36.1l3,5.1l2.2-4.6
	c0.3-0.6,1-1,1.6-1l5.7-0.1c1.1-0.1,2.1,0.7,2.3,1.7l0.7,4l5.3-5.2l0.5,37.9C264.7,976.9,262.4,979.8,259.1,980.2"/>
<path class="st8" d="M243,938.6c-5.4,7.5-9.1,20.9-11.6,30c-0.4,1.3-0.7,2.5-1,3.7c-0.3,1.2-0.2,2.4,0.5,3.4c0.7,1,1.8,1.8,3,2
	c10.4,1.8,19.4,1.4,25.1,0.8c2.4-0.2,4.1-2.4,3.9-4.7c0,0,0-0.1,0-0.1l-0.5-34.2l-2.6,2.5c-0.4,0.4-1.1,0.6-1.6,0.4
	c-0.6-0.2-1-0.7-1.1-1.3l-0.7-4c0-0.3-0.3-0.4-0.6-0.4c0,0-0.1,0-0.1,0l-5.6,0.1c-0.1,0-0.3,0.1-0.3,0.2l-2.1,4.5
	c-0.3,0.5-0.8,0.9-1.4,0.9c-0.6,0-1.2-0.3-1.5-0.8L243,938.6z M259.1,980.2L259.1,980.2L259.1,980.2z M249.5,982.3
	c-4.7,0-10.2-0.3-16.2-1.4c-2.1-0.4-4-1.6-5.2-3.4c-1.1-1.8-1.5-4-0.9-6c0.3-1.1,0.6-2.3,1-3.6c2.8-10.2,7-25.6,13.7-33.1
	c0.3-0.4,0.8-0.6,1.4-0.5c0.5,0,1,0.3,1.2,0.8l1.4,2.5l0.9-1.8c0,0,0.1-0.1,0.1-0.1c0.6-1,1.7-1.7,2.9-1.8c0,0,0.1,0,0.1,0l5.6-0.1
	c1.9-0.1,3.6,1.2,4,3.1l0.2,1l3.1-3c0.5-0.4,1.1-0.6,1.7-0.3c0.6,0.3,1,0.8,1,1.5l0.5,37.9c0.4,4.1-2.6,7.7-6.7,8.2
	C256.6,982,253.3,982.3,249.5,982.3"/>
<path class="st8" d="M247.3,976c-3.7,0-8-0.4-12.8-1.7c-0.9-0.2-1.4-1.1-1.2-2c0.2-0.9,1.1-1.4,2-1.2c12.7,3.3,22.4,0.2,22.5,0.2
	c0.8-0.3,1.8,0.2,2,1c0.3,0.8-0.2,1.8-1,2C258.5,974.6,254.1,976,247.3,976"/>
<path class="st8" d="M253.6,961.1H241c-0.9,0-1.6-0.7-1.6-1.6c0-0.9,0.7-1.6,1.6-1.6h12.6c0.9,0,1.6,0.7,1.6,1.6
	C255.2,960.4,254.5,961.1,253.6,961.1"/>
<path class="st0" d="M363.5,909.8l4.9,44l18.6,3.9l-1.1-51.5L363.5,909.8"/>
<path class="st8" d="M369.9,952.4l15.5,3.2l-1-47.6l-19,3.2L369.9,952.4z M387.1,959.2c-0.1,0-0.2,0-0.3,0l-18.6-3.9
	c-0.7-0.1-1.2-0.7-1.3-1.4l-4.9-43.9c-0.1-0.9,0.5-1.6,1.3-1.8l22.4-3.7c0.5-0.1,0.9,0.1,1.3,0.3c0.4,0.3,0.6,0.7,0.6,1.2l1.1,51.5
	c0,0.5-0.2,1-0.6,1.3C387.8,959.1,387.4,959.2,387.1,959.2"/>
<path class="st0" d="M360.2,972.4c-0.3-6.7-0.2-19.5,4.6-26.4l14.9,5.3V948c0-1,0.7-1.9,1.7-1.9l8.3-0.5c3.1-0.2,6.2,0.5,9,1.8
	c8.7,4.3,27.5,14.4,31.4,25c0.9,2.3-0.7,4.8-3.2,5.1c-7.4,1-26.2,2.5-62.2-0.4C362.3,976.9,360.3,974.9,360.2,972.4"/>
<path class="st8" d="M361.8,972.3c0.1,1.7,1.4,3.1,3.1,3.2c35.3,2.9,53.9,1.5,61.9,0.4c0.7-0.1,1.3-0.5,1.7-1.1
	c0.2-0.3,0.5-1,0.2-1.8c-3.8-10.1-22.7-20.2-30.6-24.1c-2.6-1.3-5.4-1.8-8.2-1.7l-8.3,0.5c0,0-0.1,0.1-0.1,0.3v3.2
	c0,0.5-0.3,1-0.7,1.3c-0.4,0.3-1,0.4-1.5,0.2l-13.7-4.8C361.5,954.9,361.6,967.1,361.8,972.3z M402.7,980.4c-9.7,0-22.2-0.4-38-1.7
	c-3.3-0.3-5.9-3-6.1-6.3c-0.3-7.1-0.1-20.2,4.9-27.4c0.4-0.6,1.2-0.8,1.9-0.6l12.8,4.5V948c0-1.9,1.4-3.4,3.2-3.5l8.3-0.5
	c3.4-0.2,6.8,0.5,9.8,2c10.3,5,28.2,15.1,32.2,25.8c0.6,1.5,0.4,3.2-0.4,4.6c-0.9,1.5-2.3,2.4-4,2.7
	C422.8,979.8,414.9,980.4,402.7,980.4"/>
<path class="st8" d="M398.5,973.1c-8.7,0-19.6-0.4-32-1.9c-0.9-0.1-1.5-0.9-1.4-1.8c0.1-0.9,0.9-1.5,1.8-1.4
	c31.7,3.6,53.3,0.8,53.6,0.7c0.9-0.1,1.7,0.5,1.8,1.4c0.1,0.9-0.5,1.7-1.4,1.8C420.7,972,412.3,973.1,398.5,973.1"/>
<path class="st8" d="M403.7,962.8c-0.3,0-0.7-0.1-0.9-0.3l-14.4-10.2c-0.7-0.5-0.9-1.5-0.4-2.3c0.5-0.7,1.5-0.9,2.2-0.4l14.4,10.2
	c0.7,0.5,0.9,1.5,0.4,2.3C404.7,962.5,404.2,962.8,403.7,962.8"/>
<path class="st8" d="M369.3,624.6c0,0,27.8,184.1,22.1,305.5l-29.7,0.8c0,0-33-186.2-48.9-216.8c0,0-44.4,170.6-46.1,215l-26.9-0.8
	c0,0-4.1-94.3-4.3-122.2c-0.6-79.7,7.1-115.9,11.3-133.1c3.9-15.8,8-28.6,11-37.3l10.1-28.6L369.3,624.6"/>
<path class="st9" d="M312.4,723c-0.1,0-0.3,0-0.4-0.1c-0.9-0.2-1.4-1.1-1.2-1.9l5-20.2c1.5-5.9,6.2-10.3,12.2-11.6l3.2-0.7
	c0.9-0.2,1.7,0.4,1.9,1.2c0.2,0.9-0.4,1.7-1.2,1.9l-3.2,0.7c-4.8,1-8.5,4.5-9.7,9.2l-5,20.2C313.8,722.5,313.1,723,312.4,723"/>
<path class="st8" d="M346,676.6c0,0,50.2-3.6,45.8-30.4c-4.4-26.9-38.8-43.5-63-47.8s-101,22.7-68.8,50.7
	C292.2,677,346,676.6,346,676.6"/>
<path class="st0" d="M450.3,415.4c0,0,3.6-20.2,4.9-25.7c1.5-6.2-8.3-0.5-11.8,18.6L450.3,415.4"/>
<path class="st8" d="M445.2,407.7l4.1,4.2c1.1-5.9,3.3-18.4,4.3-22.6C451.7,391,447.4,396.6,445.2,407.7z M451.4,418.8l-9.7-10
	l0.2-0.8c2.3-12.6,7.7-20.8,11.5-22.1c1-0.4,2-0.2,2.7,0.4c0.9,0.8,1.1,2,0.7,3.7c-1.3,5.3-4.8,25.4-4.9,25.6L451.4,418.8"/>
<path class="st0" d="M449.6,412.4c0.5,0.6,1.1,1.1,1.7,1.6c1,0.9,3.1,3.2,2.8,5.9c-0.3,2.7-4.5,11.8-6.5,16.1
	c-0.7,1.5-1.1,3-1.1,4.7c-0.1,2.2,1.1,15.5,1.1,15.5l-16.3,1c0,0,0.7-2.3,1.3-12.4c0.6-10.2-1.1-5.8-4.6-16
	c-3.5-10.2,0.6-19.4,2.6-20.5c2-1.1,5.2,2,5.2,2s1.7-6,5.3-6.2c1.9-0.1,2.4,1.8,3.6,3.1L449.6,412.4"/>
<path class="st8" d="M431.5,409.6c-0.1,0-0.2,0-0.2,0c-1.3,0.8-5.1,9.1-1.9,18.6c1.3,3.8,2.4,5.5,3.1,6.7c1.5,2.4,2,3.6,1.6,10
	c-0.4,5.5-0.7,8.8-1,10.6l12.7-0.8c-0.3-3.7-1-12.2-0.9-14.1c0.1-1.8,0.5-3.6,1.3-5.3c3.7-8,6.1-14,6.3-15.6c0.2-2.1-1.7-4-2.3-4.6
	c-0.6-0.6-1.2-1.2-1.7-1.7l-5-5.3c-0.4-0.4-0.8-1-1.1-1.4c-0.7-1-0.9-1.1-1.2-1.1c-1.8,0.1-3.3,3.4-3.8,5l-0.7,2.6l-1.9-1.9
	C433.6,410.4,432.2,409.6,431.5,409.6z M429.1,459l0.6-2.2c0-0.1,0.6-2.5,1.2-12.1c0.4-5.7,0-6.3-1.1-8.1c-0.8-1.4-2-3.2-3.4-7.4
	c-3.7-10.8,0.5-20.9,3.3-22.5c1.8-1,3.8-0.2,5.2,0.7c1-2.1,2.8-5,5.9-5.2c2.2-0.1,3.3,1.5,4,2.5c0.3,0.4,0.5,0.7,0.8,1l5,5.3
	c0.5,0.5,1,1.1,1.6,1.6c1.1,1,3.7,3.8,3.3,7.3c-0.3,2.7-3.8,10.5-6.6,16.6c-0.6,1.3-0.9,2.6-1,4c0,1.8,0.8,11.7,1.1,15.4l0.1,1.7
	L429.1,459"/>
<path class="st8" d="M442.4,430c-1.9,0-4.3-1-6.6-3.9c-4.6-5.6-1.6-16.3-1.5-16.8c0.2-0.9,1.1-1.4,2-1.1c0.9,0.2,1.4,1.1,1.1,2
	c-0.7,2.6-2,10.3,0.9,13.8c1.9,2.3,3.7,3,4.7,2.6c0.7-0.3,0.7-1,0.7-1.4c-0.2-3-2-4.8-2-4.8c-0.6-0.6-0.7-1.6,0-2.3
	c0.6-0.6,1.6-0.7,2.3,0c0.1,0.1,2.7,2.7,3,6.9c0.1,2.2-0.9,3.9-2.7,4.7C443.6,429.9,443,430,442.4,430"/>
<path class="st6" d="M262.3,481.2c-18.6,14.4-53.9,51.7-56,96.1c-0.1,1.8,0.9,3.5,2.5,4.4c8.7,4.6,19.3,4.3,27.7-0.9l10.5-6.4
	c0,0-14.4,51.2-13.4,59.5c1,8.2,26.3,22.2,57.9,10.7c31.6-11.5,91.1-14.7,100.6,4.7l-7.4-67.9L440,572c0,0-14.6-55-52.8-88.9
	C361.3,459.9,289.8,459.9,262.3,481.2"/>
<path class="st6" d="M453.7,452.4l-27.6-0.9c0,0-8.3,73.6-18.8,84.6c-10.5,11-31,25-31,25s6,40.6,43.3,38.3
	C479.3,595.6,453.7,452.4,453.7,452.4"/>
<path class="st9" d="M180.5,519.7h67.6c2.1,0,4.2,1.8,4.5,4l15.3,94c0.4,2.2-1.1,4-3.2,4h-67.6c-2.1,0-4.1-1.8-4.5-4l-15.4-94
	C176.9,521.5,178.3,519.7,180.5,519.7"/>
<path class="st8" d="M180.5,521.3c-0.5,0-1,0.2-1.3,0.5c-0.3,0.4-0.5,0.9-0.4,1.5l15.4,94c0.2,1.4,1.6,2.6,2.9,2.6h67.6
	c0.5,0,1-0.2,1.3-0.5c0.3-0.4,0.5-0.9,0.4-1.5L251,523.9c-0.2-1.4-1.6-2.6-2.9-2.6H180.5z M264.7,623.2h-67.6
	c-2.9,0-5.6-2.3-6.1-5.3l-15.3-93.9c-0.3-1.5,0.1-3.1,1.1-4.2c0.9-1.1,2.2-1.7,3.7-1.7h67.6c2.9,0,5.6,2.3,6.1,5.3l15.4,94
	c0.3,1.5-0.1,3.1-1.1,4.2C267.5,622.6,266.2,623.2,264.7,623.2"/>
<path class="st0" d="M183.2,560l1.6,9.4l25.4-4.4c3.8-0.6,7.4,2,7.8,5.8c0.3,2.8-0.4,6-4,8.7c-4.2,3.1-17.2,7.8-27.7,9.7
	c-11.7,2.2-12.6-14.8-9.7-23.3C178.9,559.4,183.2,560,183.2,560"/>
<path class="st8" d="M181.9,561.8c-1.1,0.4-2.6,1.5-3.7,4.7c-2,5.9-1.9,15.2,1.6,19.2c1.5,1.8,3.6,2.4,6.3,1.9
	c10.7-2,23.3-6.7,27-9.4c2.6-1.9,3.7-4.3,3.4-7.2c-0.1-1.3-0.8-2.5-1.9-3.3c-1.1-0.9-2.6-1.2-4-1l-25.4,4.4c-0.4,0.1-0.9,0-1.2-0.3
	c-0.3-0.3-0.6-0.6-0.7-1L181.9,561.8z M184.3,591.1c-2.8,0-5.2-1.1-7.1-3.2c-4.8-5.6-4.2-16.7-2.2-22.4c2.7-7.8,8.1-7.1,8.4-7
	c0.7,0.1,1.2,0.6,1.4,1.3l1.3,7.8l23.8-4.1c2.3-0.4,4.7,0.2,6.5,1.6c1.8,1.4,2.9,3.3,3.2,5.6c0.4,4.1-1.2,7.6-4.7,10.2
	c-4.6,3.4-17.8,8.1-28.3,10C185.8,591,185.1,591.1,184.3,591.1"/>
<path class="st7" d="M357.8,549.3c-0.8,0-1.6-0.1-2.4-0.4l-7.7-2.9c-2.6-1-4.3-3.5-4.3-6.2v-18.6c0-1.9,1.6-3.5,3.5-3.5h8.2
	c0.9,0,1.6,0.7,1.6,1.6s-0.7,1.6-1.6,1.6h-8.2c-0.1,0-0.3,0.1-0.3,0.2v18.6c0,1.4,0.9,2.7,2.2,3.2l7.7,2.9c0.8,0.3,1.7,0.3,2.5,0
	l8.6-3.2c1.4-0.5,2.3-1.8,2.3-3.2v-18.3c0-0.1-0.1-0.2-0.3-0.2h-7.5c-0.9,0-1.6-0.7-1.6-1.6s0.7-1.6,1.6-1.6h7.5
	c1.9,0,3.5,1.6,3.5,3.5v18.3c0,2.8-1.7,5.3-4.4,6.3l-8.6,3.2C359.4,549.2,358.6,549.3,357.8,549.3"/>
<path class="st9" d="M376.9,671.4c-0.8,0-1.5-0.6-1.6-1.4l-2.7-20c-0.1-0.9,0.5-1.7,1.4-1.8c0.9-0.1,1.7,0.5,1.8,1.4l2.7,20
	c0.1,0.9-0.5,1.7-1.4,1.8C377,671.4,377,671.4,376.9,671.4"/>
<path class="st0" d="M307.9,422.8l-3.3,33.9c-0.4,3.5-3,6.4-6.4,7.3l-4.1,1.1c-2.2,0.6-2.5,3.4-0.6,4.5c9.1,5.1,29.9,13.3,52.5-2.1
	c1.9-1.5,1.3-4.5-1.1-5l-5.8-1.3c-3.4-0.8-6-3.4-6.6-6.8l-1.3-37.5L307.9,422.8"/>
<path class="st8" d="M309.4,424.1l-3.2,32.8c-0.5,4.2-3.5,7.6-7.6,8.7l-4.1,1.1c-0.5,0.1-0.6,0.5-0.6,0.7c0,0.2,0,0.6,0.4,0.8
	c9.8,5.5,29.3,12.6,50.8-2c0.5-0.4,0.4-1,0.4-1.2c-0.1-0.2-0.2-0.8-1-0.9l-5.8-1.3c-4-0.9-7.1-4.1-7.9-8.1c0-0.1,0-0.2,0-0.2
	l-1.3-35.5L309.4,424.1z M318.6,477.9c-11.6,0-21-4.2-25.8-6.9c-1.5-0.8-2.3-2.4-2.1-4.1c0.2-1.7,1.4-3,3-3.4l4.1-1.1
	c2.8-0.7,4.8-3,5.2-5.9l3.3-33.9c0.1-0.7,0.5-1.2,1.2-1.4l23.3-6c0.5-0.1,1,0,1.4,0.3c0.4,0.3,0.6,0.7,0.7,1.2l1.3,37.4
	c0.5,2.7,2.6,4.8,5.4,5.4l5.8,1.3c1.7,0.4,3,1.7,3.4,3.4s-0.3,3.4-1.7,4.5C336.9,475.6,327.1,477.9,318.6,477.9"/>
<path class="st8" d="M351.8,381.4c-7.5-1.7,0.7,7.6-25.9-5.2c-10.6-5.1-7.1,8.7-9.9,7.4c-10.2-4.9-12.9-6.1-18.4-5.6
	c-3.6,0.3-12,5.8-11.7,10.6c1.2,15.7,8.6,12.8,11,26.7c1.7,9.8,3.8,13,7.3,15c3.5,2,7.2-2.5,11.2-0.6c5.2,2.5,2.6,11.6,7.2,16.4
	c2.9,3,10.6,5.5,24.1,1.6c2.2-0.6,3.6-2.7,3.4-5c-0.3-2.9-0.7-6.6-1.4-10c-3.2-16.5-8.2-21-5.5-24.7c4.1-5.6,15.3-0.1,18.1-4.8
	C364.4,398.2,362.1,383.8,351.8,381.4"/>
<path class="st0" d="M321,403.7l1.5,4.4c0.7,2.1,1.3,4.1,1.7,6.3c0.8,4,2.4,10.8,3.2,14.6c2.7,12.3,19.2,2.1,19.2,2.1l1.5-3l2.1-0.4
	c0.4-0.1,0.8-0.3,1.1-0.5c0.8-0.7,0.9-1.7,0.5-2.6c-2.2-4.7-6.6-15.2-7.3-24C344.4,400.4,332.6,395.2,321,403.7"/>
<path class="st8" d="M322.9,404.3l1.1,3.2c0.7,2.1,1.3,4.3,1.7,6.5c0.6,2.9,1.6,7.3,2.4,10.9c0.3,1.4,0.6,2.7,0.8,3.7
	c0.5,2.3,1.5,3.7,3.1,4.3c3.9,1.7,10.6-1.5,13.3-3l1.3-2.6c0.2-0.4,0.6-0.7,1.1-0.8l2.1-0.4c0.1,0,0.3-0.1,0.3-0.1
	c0.3-0.2,0.2-0.5,0.1-0.7c-2.4-5.2-6.4-14.9-7.4-23.6C340.2,400.7,331.7,398.5,322.9,404.3z M334.6,436.7c-1.3,0-2.6-0.2-3.8-0.7
	c-2.6-1.1-4.3-3.3-5-6.6c-0.2-1-0.5-2.3-0.8-3.7c-0.8-3.6-1.8-8.1-2.4-11c-0.4-2-0.9-4.1-1.6-6.1l-1.5-4.4c-0.2-0.7,0-1.4,0.6-1.8
	c12.3-8.9,24.5-3.6,25.1-3.4c0.5,0.2,0.9,0.8,1,1.3c0.7,8.7,5.3,19.3,7.2,23.5c0.7,1.5,0.3,3.3-0.9,4.5c-0.5,0.4-1.1,0.8-1.8,0.9
	l-1.3,0.3l-1.2,2.3c-0.1,0.3-0.3,0.5-0.6,0.6C347,432.7,340.5,436.7,334.6,436.7"/>
<path class="st0" d="M321.7,418.2c0,0-3.6-10.5-8-7.9S313.4,424.3,321.7,418.2"/>
<path class="st8" d="M340.7,420.8c0.8,0.2,1.3,0,1.5-0.2c0.5-0.4,1.5-1.5,1.9-5.2c0.1-1,0.2-2.7-0.5-3.1c-0.6-0.4-1.2-0.4-1.4-0.3
	c-0.3,0.1-0.5,0.2-0.5,0.3C338.9,416.9,340.1,420.3,340.7,420.8z M341.3,424.1c-0.5,0-1-0.1-1.5-0.2c-1-0.3-1.9-1.2-2.4-2.5
	c-1-2.3-1.1-6.4,1.5-10.7c0.5-0.9,1.4-1.5,2.5-1.7c1.3-0.3,2.7,0,3.9,0.7c1.7,1.1,2.3,3.1,2,6.2c-0.4,3.8-1.5,6.2-3.3,7.5
	C343.2,423.8,342.3,424.1,341.3,424.1"/>
<path class="st8" d="M342.4,411.9C342.3,411.9,342.3,411.9,342.4,411.9l-24.2-1c-0.9,0-1.6-0.8-1.5-1.7c0-0.9,0.8-1.6,1.7-1.5
	l24.1,1c0.9,0,1.6,0.8,1.5,1.7C343.9,411.2,343.2,411.9,342.4,411.9"/>
<path class="st8" d="M351.3,423.4c-0.7,0-1.4-0.5-1.6-1.2c-0.2-0.8,0.2-1.5,0.9-1.9c0.7-0.7,2.4-4.3,1.3-7.2
	c-0.1-0.4-0.3-0.5-0.5-0.6c-0.9-0.3-2.7,0.4-3.4,0.7c-0.8,0.4-1.8,0.1-2.2-0.7c-0.4-0.8-0.1-1.8,0.7-2.2c0.4-0.2,3.5-1.8,6-0.9
	c1.1,0.4,1.9,1.2,2.4,2.4c1.4,3.8-0.3,7.7-0.8,8.8c-0.8,1.5-1.6,2.4-2.4,2.6C351.6,423.4,351.5,423.4,351.3,423.4"/>
</svg>
